<mxfile host="65bd71144e">
    <diagram id="rX4BM3-JNE_iEhOq6N6F" name="第 1 页">
        <mxGraphModel dx="514" dy="242" grid="1" gridSize="10" guides="1" tooltips="1" connect="1" arrows="1" fold="1" page="1" pageScale="1" pageWidth="2336" pageHeight="1654" math="0" shadow="0">
            <root>
                <mxCell id="0"/>
                <mxCell id="1" parent="0"/>
                <mxCell id="13" value="" style="rounded=0;whiteSpace=wrap;html=1;fillColor=#E6E6E6;" vertex="1" parent="1">
                    <mxGeometry x="180" y="148.5" width="390" height="60" as="geometry"/>
                </mxCell>
                <mxCell id="2" value="" style="shape=image;imageAspect=0;aspect=fixed;verticalLabelPosition=bottom;verticalAlign=top;image=data:image/png,iVBORw0KGgoAAAANSUhEUgAAABgAAAAmCAAAAAD7bAT5AAAAr0lEQVQoFV3BgVHEAAzAMHv/oU3yf6UByfiQR3wYQ64YBshfAQbyX2DIii9ZYciIh4wwWfGQlcmIl4xMRrxkZDLiJSNZccmQFZcMWXHJkBWXDFlxyZAVlwxZccmQFZcMWXHJkBWXDFlxyZAVlwxZccmQFZcMWXHJkBWXDFlxCWQy4iUjkxEvGZmMeMnIZMVDVoaMeMgIQ1Z8yQoD+S8wQP4KMIZcMYwPecSH8Uvi1w+SvkgRB++2TwAAAABJRU5ErkJggg==;" vertex="1" parent="1">
                    <mxGeometry x="190" y="159.5" width="24" height="38" as="geometry"/>
                </mxCell>
                <mxCell id="3" value="" style="shape=image;imageAspect=0;aspect=fixed;verticalLabelPosition=bottom;verticalAlign=top;image=data:image/png,iVBORw0KGgoAAAANSUhEUgAAAA8AAAAlCAAAAAC4iuzGAAAAc0lEQVQoFVXBgRGDQADDMHv/oUPuS4BKhpdgGCnDIT8GkIeRL/kntyAlRwApgXBIGUbKMFKGkTKMlGGkDCNlGCnDSBlGyjBShpEyjJRhpAwjZRgpw0gZRsowUoaRMoyUYaQMI2UYKcNIGUbKMFKGkTKM1AXqYCQmp3kC/AAAAABJRU5ErkJggg==;" vertex="1" parent="1">
                    <mxGeometry x="230" y="162.5" width="15" height="37" as="geometry"/>
                </mxCell>
                <mxCell id="4" value="" style="shape=image;imageAspect=0;aspect=fixed;verticalLabelPosition=bottom;verticalAlign=top;image=data:image/png,iVBORw0KGgoAAAANSUhEUgAAABkAAAAnCAAAAADf8rxiAAAArElEQVQoFXXBCQ6DAAzAsOT/j87asQOQsI0vIf6MJT9xMEAuYhnITQxDPpKPAJMVB3kLTEZ8yQpkxZ+skBUnMkJWnMgIGXEmI2TEmYww7mSEcScQGDcyAuNGRmBcyQgwLmQFGBcyYhhnMmIZJzLizfiTFW/Gj6w4GF+y4sP4kBVfxkFW/BhvsuLPWLLixFgy4swYMuLCABlxZSAjbgwZcWey4k6eyBN5Ik+MBy8hEUgFcVk9uAAAAABJRU5ErkJggg==;" vertex="1" parent="1">
                    <mxGeometry x="260" y="161.5" width="25" height="39" as="geometry"/>
                </mxCell>
                <mxCell id="6" value="" style="shape=image;imageAspect=0;aspect=fixed;verticalLabelPosition=bottom;verticalAlign=top;image=data:image/png,iVBORw0KGgoAAAANSUhEUgAAABcAAAAnCAAAAADBO4zRAAAApklEQVQoFV3BgWHDIBDAQGn/odWHOg7hzvgQ4sNY5BWLAfIjwEAugSGP5BEmW/yTJZMRLxnJFi8ZyRIHGbLEQYYscZBh3GQYNxnGRUbGRUbGLxlhnGQLY5OvAGOTVwxjk68AY5NDYJxkC+OXLBkXWYybDOMmw7jJMG4yZMRJhixxkCFLHGTIEgcZssVLRiZLPGTJkEfyCAO5BAbIjwBjkVcsxocQH3+2SkUPMaY+9QAAAABJRU5ErkJggg==;" vertex="1" parent="1">
                    <mxGeometry x="300" y="161" width="23" height="39" as="geometry"/>
                </mxCell>
                <mxCell id="7" value="" style="shape=image;imageAspect=0;aspect=fixed;verticalLabelPosition=bottom;verticalAlign=top;image=data:image/png,iVBORw0KGgoAAAANSUhEUgAAABkAAAAkCAAAAABZZs7MAAAAsElEQVQoFXXByUEDARAEMVX+QTdjzLUPpOYpzGkecuY0f+VlTvNXXuY0f+TTnOZX3uY0v2JhTvMjLMxpvoUJc5pvMcKc5ksYYU7zFoYwp3mLOWFO8ynMCXOalzAvYU7zEvMpzGlOmE9hTkOYtzCnIeZLmNMI8yXMacJ8C3OamB9hTgvzI8zJmV9hTv6T/+Q/zVPO0DyFOc1TmNM8hTnNU5jTPIU5zVOY0zyFOc1TmPMBC4NTBJNbTqsAAAAASUVORK5CYII=;" vertex="1" parent="1">
                    <mxGeometry x="340" y="163" width="25" height="36" as="geometry"/>
                </mxCell>
                <mxCell id="8" value="" style="shape=image;imageAspect=0;aspect=fixed;verticalLabelPosition=bottom;verticalAlign=top;image=data:image/png,iVBORw0KGgoAAAANSUhEUgAAABcAAAAmCAAAAAAKZ190AAAAmklEQVQoFWXBgWHCQBDAMHv/od37BApcJAN5yJCnDHnKkKcMGfHLkBG/DBnxyxCIxRCIxRCIxWTEYjJiMRmxmIzkJS4mSwyTLcDkITC5xJBbmIx4kUvGLzkyFhkZixzGJsPYZBibDGOTYWwyZMQ3GTLimww54kNGcsSHjOQSb3JkcsRNjjDkFnILDGQJDJBvMYxD/sVhvAjE2x+4X0kJYcC60QAAAABJRU5ErkJggg==;" vertex="1" parent="1">
                    <mxGeometry x="380" y="162" width="23" height="38" as="geometry"/>
                </mxCell>
                <mxCell id="9" value="" style="shape=image;imageAspect=0;aspect=fixed;verticalLabelPosition=bottom;verticalAlign=top;image=data:image/png,iVBORw0KGgoAAAANSUhEUgAAABgAAAAnCAAAAAAwMNdcAAAAs0lEQVQoFW3BiXHEMBDAMLL/opmVX50ngPE/4yWHGMZFbjGMkzxiGItsYhhDLnEzQA6xMUCW2BnIEj8MWeKXISM+DBnxYTLiy2TEl8kI5BQHEwh5xZAl2QXIfwJ5xJBDyCVOsoSc4iZLcoiXjGSJjYxkiZ0MWWInQ5bYyZAldjJkiZ0MkxEbGSYjXjIyGfGSkSEjHjIyZImLjDCQJQ6yhIF8BQbIrwBjkU0M4yC3OBgPIW5/alpOB4TURK0AAAAASUVORK5CYII=;" vertex="1" parent="1">
                    <mxGeometry x="420" y="161" width="24" height="39" as="geometry"/>
                </mxCell>
                <mxCell id="10" value="" style="shape=image;imageAspect=0;aspect=fixed;verticalLabelPosition=bottom;verticalAlign=top;image=data:image/png,iVBORw0KGgoAAAANSUhEUgAAABkAAAAlCAAAAACSOh1pAAAAoklEQVQoFXXBhxHDABCAMNh/aPLuJWdJvsgX+SIfMv7IyPgjEMYfgTDeZITxJhAYLzIC40UgwHiSEWA8CcQwHmTEMB4EYmHcyYiFcScQK+NGRqyMGxmxMi4yYmNcZMTGuAjEzjjJiJ1xEoiDcZARB+MgECdjJyNOxk5GnIyNjLgYGxlxMVYy4sZYyYgbYyEj7oyFjLgzhox4MIaMeDCGQDz9AP08QwSO0KBMAAAAAElFTkSuQmCC;" vertex="1" parent="1">
                    <mxGeometry x="460" y="162.5" width="25" height="37" as="geometry"/>
                </mxCell>
                <mxCell id="11" value="" style="shape=image;imageAspect=0;aspect=fixed;verticalLabelPosition=bottom;verticalAlign=top;image=data:image/png,iVBORw0KGgoAAAANSUhEUgAAABgAAAAnCAAAAAAwMNdcAAAAv0lEQVQoFV3BgWGDQBDAMHv/od07QuAbyfgS4mEsecTFGHKKYSA/AgzkI7kFhqy4yCVMVtxkhcmIh4wwGfGSkcmIl4xMRrxkZDLiJSOTES8ZmYx4yAiTFV8ywpAVHzICA1kx5BIYIP8FGEMOsYwhpxgG8iPAkEssWYHJipusMBnxkJWsOMhIVhxkJCtOMmTFSYasOMmQFScZsuIgI7nES0YmIx6yMrnEh6ww5JZ8hYH8CgyQf2IYSx5xMb6EePwBktBdBf0QXkoAAAAASUVORK5CYII=;" vertex="1" parent="1">
                    <mxGeometry x="500" y="161.5" width="24" height="39" as="geometry"/>
                </mxCell>
                <mxCell id="12" value="" style="shape=image;imageAspect=0;aspect=fixed;verticalLabelPosition=bottom;verticalAlign=top;image=data:image/png,iVBORw0KGgoAAAANSUhEUgAAABgAAAAnCAAAAAAwMNdcAAAAtklEQVQoFW3BgUHDQBDAMHv/oc1daNNvQDLehLgZS25xMYYcYhkgX2IYyEOAISsusgKTFS+ywmTETUaYjLjJCFlxkJGsOMhIVhxkJCtOAsmKkwxZcZIhK04yZMVJhlziQ5bJiA9ZJive5GLIil/yy5BLDHnJQP7KADkkI2PILWRkXOQSICPjSUbGk0AYDzLCeJARxjcZgfFFRoBxkEuA8SYvMYwhh1jGkI+4GEPe4sUYcokP438/NXdQCVI22d4AAAAASUVORK5CYII=;" vertex="1" parent="1">
                    <mxGeometry x="540" y="161.5" width="24" height="39" as="geometry"/>
                </mxCell>
            </root>
        </mxGraphModel>
    </diagram>
</mxfile>